<svg width="13" height="14" viewBox="0 0 13 14" fill="none" xmlns="http://www.w3.org/2000/svg">
<path d="M1.03201 13.25C1.07108 13.25 1.11014 13.2461 1.1492 13.2402L4.43436 12.6641C4.47342 12.6562 4.51053 12.6387 4.53787 12.6094L12.8172 4.33008C12.8353 4.31201 12.8496 4.29055 12.8594 4.26692C12.8692 4.24329 12.8743 4.21796 12.8743 4.19238C12.8743 4.1668 12.8692 4.14147 12.8594 4.11785C12.8496 4.09422 12.8353 4.07276 12.8172 4.05469L9.57108 0.806641C9.53397 0.769531 9.48514 0.75 9.4324 0.75C9.37967 0.75 9.33084 0.769531 9.29373 0.806641L1.01443 9.08594C0.985138 9.11523 0.96756 9.15039 0.959747 9.18945L0.383575 12.4746C0.364575 12.5792 0.371364 12.6869 0.403354 12.7883C0.435345 12.8898 0.491572 12.9818 0.567169 13.0566C0.696075 13.1816 0.858185 13.25 1.03201 13.25Z" fill="#80722A"/>
</svg>