<svg width="331" height="419" viewBox="0 0 331 419" fill="none" xmlns="http://www.w3.org/2000/svg">
<path d="M385.752 -97.6649C330.022 -181.688 216.764 -204.616 132.742 -148.886C52.3423 -95.5594 30.1538 12.5806 82.7746 93.2512L87.3999 100.225L385.752 -97.6649Z" fill="#008CFF"/>
<path d="M130.568 165.308L87.3984 100.223L86.2362 100.994C3.16858 156.977 -19.3262 269.553 36.1318 353.165L56.5375 383.93L79.3011 418.25C163.369 362.589 186.298 249.331 130.568 165.308Z" fill="#004DDD"/>
<path d="M86.2402 100.994L87.4024 100.223L82.7772 93.2496C30.1564 12.579 52.3449 -95.5609 132.744 -148.888L-13.4922 -51.8928C-97.5148 3.83726 -120.443 117.095 -64.7134 201.118L36.1359 353.165C-19.3221 269.553 3.24097 156.931 86.2402 100.994Z" fill="#1534A3"/>
</svg>
